<svg width="169" height="78" viewBox="0 0 169 78" fill="none" xmlns="http://www.w3.org/2000/svg">
<path d="M75.6367 41.569C75.5614 39.9117 75.1847 38.6687 74.5067 37.84C73.8287 36.936 72.5857 36.4087 70.7777 36.258C70.2504 36.6347 69.5347 37.9153 68.6307 40.1C67.8021 42.2093 67.2747 44.4693 67.0487 46.88C66.2954 50.496 65.9187 54.112 65.9187 57.728C65.9941 61.4193 66.5967 64.1313 67.7267 65.864C67.8774 66.1653 68.0281 66.2783 68.1787 66.203C68.5554 66.203 69.1581 65.4497 69.9867 63.943C73.9794 56.711 75.8627 49.253 75.6367 41.569ZM79.1397 63.152L77.4447 67.559C77.4447 67.7097 76.3524 69.3293 74.1677 72.418C73.4897 73.8493 72.2091 74.6403 70.3257 74.791C68.5177 74.9417 66.7474 74.7533 65.0147 74.226C62.6794 73.3973 60.9091 72.418 59.7037 71.288C58.4984 70.158 57.2931 68.2747 56.0877 65.638C54.9577 62.926 54.3551 60.7037 54.2797 58.971C53.9031 56.485 53.7147 54.903 53.7147 54.225V51.513C53.7147 48.801 53.8277 47.219 54.0537 46.767C54.1291 46.4657 54.3174 45.6747 54.6187 44.394C54.9954 41.23 55.8994 38.2167 57.3307 35.354C60.1181 29.8547 62.9807 27.0297 65.9187 26.879H66.4837C66.6344 26.9543 66.8604 26.992 67.1617 26.992H68.6307C71.2674 27.218 72.8871 27.444 73.4897 27.67C74.6197 27.9713 75.5991 28.122 76.4277 28.122L79.3657 28.687C80.2697 28.6117 81.4374 28.8 82.8687 29.252C84.3754 29.704 85.1664 30.043 85.2417 30.269C85.3924 30.495 85.6184 31.3237 85.9197 32.755C86.2211 34.1863 86.4094 35.241 86.4847 35.919C86.6354 36.5217 86.7484 37.162 86.8237 37.84C87.4264 43.3393 88.4057 48.462 89.7617 53.208C89.8371 53.434 89.9124 53.773 89.9877 54.225C90.0631 54.677 90.3267 55.581 90.7787 56.937C91.2307 58.2177 91.5697 59.31 91.7957 60.214C92.0217 61.118 92.4361 62.3233 93.0387 63.83C93.4907 64.96 94.1687 66.2783 95.0727 67.785C96.7301 70.1203 95.8637 71.9283 92.4737 73.209C92.0217 73.3597 91.2307 73.435 90.1007 73.435C89.8747 73.435 89.1591 73.0583 87.9537 72.305C87.2004 72.305 86.4847 71.8907 85.8067 71.062L84.9027 70.836C84.3754 70.3087 83.9234 70.045 83.5467 70.045C83.3961 69.8943 82.0401 66.8433 79.4787 60.892C79.2527 61.7207 79.1397 62.474 79.1397 63.152ZM129.048 69.819L128.37 67.898L127.127 60.327C126.75 58.8957 126.562 57.615 126.562 56.485L127.014 51.513C127.014 50.6843 127.051 50.2323 127.127 50.157C126.223 50.157 124.867 51.2493 123.059 53.434C122.908 53.66 122.682 54.0367 122.381 54.564C119.217 59.6113 117.333 65.6757 116.731 72.757C116.128 74.0377 115.337 74.678 114.358 74.678C112.324 74.226 111.194 74 110.968 74L110.177 74.113H108.708C106.975 73.9623 105.845 73.2843 105.318 72.079C105.016 71.7023 104.866 70.723 104.866 69.141V67.559L104.527 61.344V52.078C104.527 51.0233 104.451 49.705 104.301 48.123C104.15 46.3903 104.112 43.6783 104.188 39.987C104.263 36.2203 104.225 34.224 104.075 33.998C103.924 33.6967 103.849 33.32 103.849 32.868C103.849 32.416 103.962 31.964 104.188 31.512C104.414 31.06 105.431 30.5703 107.239 30.043C108.218 29.4403 109.047 29.139 109.725 29.139C110.779 29.365 112.135 29.817 113.793 30.495C114.923 30.721 115.488 31.8133 115.488 33.772C115.638 37.0113 115.638 39.3467 115.488 40.778C115.412 42.2093 115.45 45.1097 115.601 49.479C121.175 38.7817 126.147 32.3407 130.517 30.156C130.893 29.7793 131.458 29.591 132.212 29.591C132.965 29.591 133.831 29.9677 134.811 30.721C135.79 31.4743 136.468 31.964 136.845 32.19C137.221 32.416 137.636 32.7927 138.088 33.32C138.615 33.8473 139.029 34.1863 139.331 34.337C140.235 35.8437 140.423 39.3843 139.896 44.959C139.82 45.7877 139.745 46.541 139.67 47.219C139.594 47.8217 139.557 49.1777 139.557 51.287C139.557 53.3963 139.594 54.8653 139.67 55.694C139.896 58.3307 140.009 59.875 140.009 60.327L140.574 64.621C141.327 66.3537 141.704 67.7097 141.704 68.689C141.779 69.593 142.457 71.062 143.738 73.096C144.265 74.226 144.039 75.13 143.06 75.808C141.553 76.5613 140.724 76.8627 140.574 76.712C140.498 76.6367 140.084 76.712 139.331 76.938C138.577 77.2393 137.221 77.3147 135.263 77.164C134.283 76.938 133.304 76.3353 132.325 75.356L130.63 73.661C130.027 72.757 129.613 71.7777 129.387 70.723C129.01 70.3463 128.897 70.045 129.048 69.819ZM159.031 0.888998C159.106 0.813666 159.822 0.700665 161.178 0.549996C163.362 0.17333 164.869 0.323997 165.698 1.002C166.602 1.60466 167.242 2.28267 167.619 3.036C167.769 5.44666 167.43 8.573 166.602 12.415C165.773 14.901 165.057 16.7467 164.455 17.952L163.325 19.647C163.099 20.2497 162.609 20.89 161.856 21.568C161.102 22.246 160.537 22.585 160.161 22.585C159.859 22.5097 159.294 22.246 158.466 21.794C157.712 21.2667 157.26 20.89 157.11 20.664C157.034 20.438 156.959 20.1743 156.884 19.873L156.319 17.613L154.059 14.788C153.607 13.884 153.381 12.98 153.381 12.076C153.155 9.96666 153.418 8.347 154.172 7.217C154.172 7.06633 154.285 6.68966 154.511 6.087C154.887 4.42966 156.394 2.697 159.031 0.888998ZM155.641 51.626C155.641 50.948 155.754 50.044 155.98 48.914C156.281 47.7087 156.356 46.88 156.206 46.428C156.13 45.976 156.13 44.6953 156.206 42.586C156.432 41.682 156.469 40.665 156.319 39.535C155.791 37.8777 155.641 36.6723 155.867 35.919C156.093 35.1657 156.582 34.337 157.336 33.433C158.089 32.4537 158.918 31.7757 159.822 31.399C160.726 31.0223 162.082 31.06 163.89 31.512C164.342 31.738 165.095 32.4913 166.15 33.772C166.376 33.998 166.639 34.8643 166.941 36.371C167.317 37.8777 167.543 39.535 167.619 41.343C167.769 43.0757 167.882 45.637 167.958 49.027C168.033 52.3417 168.184 56.824 168.41 62.474C168.636 68.0487 168.673 71.514 168.523 72.87C168.447 74.226 167.958 75.243 167.054 75.921C166.225 76.6743 165.472 76.825 164.794 76.373C164.191 75.9963 163.551 75.7327 162.873 75.582C161.667 75.582 160.613 75.0923 159.709 74.113C159.407 74.0377 158.692 73.6987 157.562 73.096C156.432 72.418 155.716 71.2127 155.415 69.48C155.038 68.7267 154.925 66.2783 155.076 62.135V58.067L155.641 54.225V51.626Z" fill="#FF6347"/>
<path d="M0.858475 26.9471C7.42533 23.885 15.2312 26.7261 18.2934 33.2929L33.1629 65.1807C34.694 68.4641 33.2734 72.367 29.99 73.8981C26.7066 75.4292 22.8036 74.0087 21.2725 70.7252L0.858475 26.9471Z" fill="#FF6347"/>
<path d="M35.8523 32.9629C38.9698 26.2775 46.9166 23.3851 53.602 26.5026L32.8194 71.0711C31.2606 74.4138 27.2872 75.86 23.9445 74.3012C20.6018 72.7425 19.1556 68.7691 20.7144 65.4264L35.8523 32.9629Z" fill="#1E2127"/>
</svg>
