<svg width="110" height="51" viewBox="0 0 110 51" fill="none" xmlns="http://www.w3.org/2000/svg">
<path d="M49.3064 26.9884C49.2576 25.9146 49.0135 25.1093 48.5743 24.5724C48.135 23.9867 47.3297 23.645 46.1583 23.5474C45.8166 23.7915 45.353 24.6212 44.7673 26.0366C44.2304 27.4032 43.8887 28.8675 43.7423 30.4293C43.2542 32.7721 43.0102 35.1148 43.0102 37.4576C43.059 39.8491 43.4495 41.6062 44.1816 42.7288C44.2792 42.924 44.3768 42.9972 44.4744 42.9484C44.7185 42.9484 45.1089 42.4603 45.6458 41.4842C48.2326 36.7987 49.4528 31.9667 49.3064 26.9884ZM51.5759 40.9717L50.4777 43.827C50.4777 43.9246 49.77 44.9739 48.3546 46.975C47.9153 47.9024 47.0856 48.4149 45.8654 48.5125C44.6941 48.6101 43.5471 48.4881 42.4245 48.1464C40.9115 47.6095 39.7645 46.975 38.9836 46.2429C38.2027 45.5108 37.4217 44.2906 36.6408 42.5824C35.9087 40.8253 35.5182 39.3855 35.4694 38.2629C35.2254 36.6523 35.1034 35.6273 35.1034 35.188V33.431C35.1034 31.6739 35.1766 30.6489 35.323 30.3561C35.3718 30.1609 35.4938 29.6484 35.6891 28.8186C35.9331 26.7687 36.5188 24.8164 37.4461 22.9617C39.252 19.3988 41.1067 17.5685 43.0102 17.4709H43.3763C43.4739 17.5197 43.6203 17.5441 43.8155 17.5441H44.7673C46.4755 17.6905 47.5249 17.837 47.9153 17.9834C48.6475 18.1786 49.282 18.2762 49.8188 18.2762L51.7223 18.6423C52.308 18.5935 53.0645 18.7155 53.9919 19.0083C54.968 19.3012 55.4805 19.5208 55.5293 19.6672C55.6269 19.8137 55.7734 20.3505 55.9686 21.2779C56.1638 22.2052 56.2858 22.8885 56.3346 23.3278C56.4323 23.7183 56.5055 24.1331 56.5543 24.5724C56.9447 28.1353 57.5792 31.4543 58.4578 34.5291C58.5066 34.6755 58.5554 34.8952 58.6042 35.188C58.653 35.4809 58.8238 36.0666 59.1167 36.9451C59.4095 37.7748 59.6292 38.4825 59.7756 39.0682C59.922 39.6539 60.1904 40.4348 60.5809 41.411C60.8737 42.1431 61.313 42.9972 61.8987 43.9734C62.9725 45.4864 62.4112 46.6578 60.2148 47.4875C59.922 47.5851 59.4095 47.6339 58.6774 47.6339C58.531 47.6339 58.0673 47.3899 57.2864 46.9018C56.7983 46.9018 56.3346 46.6334 55.8954 46.0965L55.3097 45.9501C54.968 45.6084 54.6752 45.4376 54.4312 45.4376C54.3335 45.34 53.455 43.3633 51.7955 39.5075C51.6491 40.0444 51.5759 40.5324 51.5759 40.9717ZM83.9107 45.2912L83.4714 44.0466L82.6661 39.1414C82.4221 38.2141 82.3001 37.3844 82.3001 36.6523L82.5929 33.431C82.5929 32.8941 82.6173 32.6012 82.6661 32.5524C82.0804 32.5524 81.2019 33.2601 80.0305 34.6755C79.9329 34.822 79.7865 35.066 79.5912 35.4077C77.5413 38.6778 76.3211 42.6068 75.9307 47.1947C75.5402 48.0244 75.0277 48.4393 74.3932 48.4393C73.0754 48.1464 72.3433 48 72.1969 48L71.6844 48.0732H70.7327C69.6101 47.9756 68.878 47.5363 68.5363 46.7554C68.3411 46.5114 68.2435 45.8769 68.2435 44.8519V43.827L68.0239 39.8003V33.797C68.0239 33.1137 67.975 32.2596 67.8774 31.2346C67.7798 30.112 67.7554 28.355 67.8042 25.9634C67.853 23.523 67.8286 22.2296 67.731 22.0832C67.6334 21.888 67.5846 21.6439 67.5846 21.3511C67.5846 21.0583 67.6578 20.7654 67.8042 20.4726C67.9506 20.1797 68.6095 19.8625 69.7809 19.5208C70.4154 19.1304 70.9523 18.9351 71.3916 18.9351C72.0749 19.0815 72.9534 19.3744 74.0272 19.8137C74.7593 19.9601 75.1253 20.6678 75.1253 21.9368C75.223 24.0355 75.223 25.5485 75.1253 26.4759C75.0765 27.4032 75.1009 29.2823 75.1986 32.1132C78.8103 25.1825 82.0316 21.0094 84.8624 19.594C85.1065 19.35 85.4725 19.228 85.9606 19.228C86.4487 19.228 87.01 19.472 87.6445 19.9601C88.279 20.4482 88.7182 20.7654 88.9623 20.9118C89.2063 21.0583 89.4748 21.3023 89.7676 21.6439C90.1093 21.9856 90.3777 22.2052 90.5729 22.3028C91.1586 23.279 91.2806 25.5729 90.939 29.1847C90.8902 29.7216 90.8414 30.2097 90.7926 30.6489C90.7438 31.0394 90.7194 31.9179 90.7194 33.2845C90.7194 34.6511 90.7438 35.6029 90.7926 36.1398C90.939 37.848 91.0122 38.8486 91.0122 39.1414L91.3783 41.9235C91.8663 43.046 92.1104 43.9246 92.1104 44.5591C92.1592 45.1448 92.5984 46.0965 93.4282 47.4143C93.7698 48.1464 93.6234 48.7321 92.9889 49.1714C92.0127 49.6595 91.4759 49.8547 91.3783 49.7571C91.3294 49.7083 91.061 49.7571 90.5729 49.9035C90.0849 50.0987 89.2063 50.1475 87.9373 50.0499C87.3028 49.9035 86.6683 49.513 86.0338 48.8785L84.9357 47.7804C84.5452 47.1947 84.2768 46.5602 84.1303 45.8769C83.8863 45.6328 83.8131 45.4376 83.9107 45.2912ZM103.336 0.632305C103.385 0.583498 103.849 0.510286 104.727 0.41267C106.143 0.168632 107.119 0.266248 107.656 0.705515C108.241 1.09598 108.656 1.53524 108.9 2.02332C108.998 3.58516 108.778 5.61067 108.241 8.09985C107.705 9.7105 107.241 10.9063 106.85 11.6872L106.118 12.7854C105.972 13.1758 105.655 13.5907 105.167 14.03C104.678 14.4692 104.312 14.6889 104.068 14.6889C103.873 14.6401 103.507 14.4692 102.97 14.1764C102.482 13.8347 102.189 13.5907 102.092 13.4443C102.043 13.2979 101.994 13.127 101.945 12.9318L101.579 11.4676L100.115 9.63729C99.8221 9.0516 99.6757 8.46591 99.6757 7.88022C99.5293 6.51361 99.7001 5.46425 100.188 4.73214C100.188 4.63452 100.261 4.39048 100.408 4.00002C100.652 2.92626 101.628 1.80368 103.336 0.632305ZM101.14 33.5042C101.14 33.0649 101.213 32.4792 101.36 31.7471C101.555 30.9662 101.604 30.4293 101.506 30.1364C101.457 29.8436 101.457 29.0139 101.506 27.6473C101.652 27.0616 101.677 26.4027 101.579 25.6706C101.238 24.5968 101.14 23.8159 101.286 23.3278C101.433 22.8397 101.75 22.3028 102.238 21.7172C102.726 21.0827 103.263 20.6434 103.849 20.3993C104.434 20.1553 105.313 20.1797 106.484 20.4726C106.777 20.619 107.265 21.1071 107.949 21.9368C108.095 22.0832 108.266 22.6445 108.461 23.6206C108.705 24.5968 108.852 25.6706 108.9 26.8419C108.998 27.9645 109.071 29.624 109.12 31.8203C109.169 33.9678 109.266 36.8719 109.413 40.5324C109.559 44.1442 109.584 46.3894 109.486 47.2679C109.437 48.1464 109.12 48.8053 108.534 49.2446C107.997 49.7327 107.509 49.8303 107.07 49.5374C106.68 49.2934 106.265 49.1226 105.825 49.025C105.045 49.025 104.361 48.7077 103.776 48.0732C103.58 48.0244 103.117 47.8048 102.385 47.4143C101.652 46.975 101.189 46.1941 100.994 45.0715C100.749 44.5835 100.676 42.9972 100.774 40.3128V37.6772L101.14 35.188V33.5042Z" fill="white"/>
<path d="M0.858475 17.4869V17.4869C5.11306 15.5029 10.1704 17.3437 12.1543 21.5982L21.7881 42.2579C22.7801 44.3852 21.8597 46.9139 19.7324 47.9058V47.9058C17.6051 48.8978 15.0765 47.9774 14.0845 45.8502L0.858475 17.4869Z" fill="white"/>
<path d="M24.1784 22.0323C26.1982 17.7009 31.3468 15.827 35.6782 17.8468V17.8468L22.2134 46.7221C21.2036 48.8878 18.6292 49.8248 16.4635 48.8149V48.8149C14.2978 47.805 13.3609 45.2307 14.3707 43.065L24.1784 22.0323Z" fill="#FF6347"/>
</svg>
